<svg width="32" height="32" viewBox="0 0 32 32" fill="none" xmlns="http://www.w3.org/2000/svg">
<g clip-path="url(#clip0_21305_128)">
<path d="M18.6668 1.33334V6.66668C18.6668 7.37392 18.9478 8.0522 19.4479 8.5523C19.948 9.05239 20.6263 9.33334 21.3335 9.33334H26.6668M20.0002 1.33334H8.00016C7.29292 1.33334 6.61464 1.61429 6.11454 2.11439C5.61445 2.61449 5.3335 3.29277 5.3335 4.00001V28C5.3335 28.7073 5.61445 29.3855 6.11454 29.8856C6.61464 30.3857 7.29292 30.6667 8.00016 30.6667H24.0002C24.7074 30.6667 25.3857 30.3857 25.8858 29.8856C26.3859 29.3855 26.6668 28.7073 26.6668 28V8.00001L20.0002 1.33334Z" stroke="#4F46E5" stroke-width="2" stroke-linecap="round" stroke-linejoin="round"/>
<rect y="13.0001" width="32" height="13.3333" rx="2" fill="#4F46E5"/>
<path d="M7.56445 23V16.4546H10.1852C10.6667 16.4546 11.0684 16.5259 11.3901 16.6687C11.7118 16.8114 11.9537 17.0096 12.1156 17.2632C12.2775 17.5146 12.3585 17.8043 12.3585 18.1325C12.3585 18.3882 12.3074 18.6129 12.2051 18.8068C12.1028 18.9986 11.9622 19.1563 11.7832 19.2798C11.6064 19.4013 11.4039 19.4876 11.176 19.5387V19.6026C11.4252 19.6133 11.6586 19.6836 11.8759 19.8136C12.0953 19.9436 12.2733 20.1257 12.4096 20.3601C12.546 20.5923 12.6142 20.8693 12.6142 21.1911C12.6142 21.5384 12.5279 21.8484 12.3553 22.1211C12.1848 22.3917 11.9324 22.6058 11.5978 22.7635C11.2633 22.9212 10.851 23 10.361 23H7.56445ZM8.94833 21.8686H10.0765C10.4622 21.8686 10.7434 21.7951 10.9203 21.6481C11.0971 21.4989 11.1855 21.3008 11.1855 21.0536C11.1855 20.8725 11.1419 20.7127 11.0545 20.5742C10.9672 20.4357 10.8425 20.3271 10.6806 20.2482C10.5208 20.1694 10.3301 20.13 10.1085 20.13H8.94833V21.8686ZM8.94833 19.1936H9.97425C10.1639 19.1936 10.3322 19.1605 10.4792 19.0945C10.6284 19.0263 10.7456 18.9304 10.8308 18.8068C10.9181 18.6833 10.9618 18.5352 10.9618 18.3626C10.9618 18.1261 10.8777 17.9354 10.7093 17.7905C10.5431 17.6456 10.3066 17.5732 9.99982 17.5732H8.94833V19.1936Z" fill="white"/>
<path d="M13.5146 23V16.4546H17.9252V17.5955H14.8985V19.1552H17.6982V20.2962H14.8985V21.859H17.9379V23H13.5146Z" fill="white"/>
<path d="M21.3457 23H19.0254V16.4546H21.3649C22.0233 16.4546 22.59 16.5856 23.0652 16.8477C23.5403 17.1076 23.9057 17.4815 24.1614 17.9695C24.4192 18.4574 24.5481 19.0412 24.5481 19.7209C24.5481 20.4027 24.4192 20.9887 24.1614 21.4787C23.9057 21.9688 23.5382 22.3448 23.0588 22.6069C22.5815 22.869 22.0105 23 21.3457 23ZM20.4093 21.8143H21.2882C21.6973 21.8143 22.0414 21.7418 22.3205 21.597C22.6017 21.4499 22.8127 21.223 22.9533 20.9162C23.0961 20.6073 23.1674 20.2088 23.1674 19.7209C23.1674 19.2372 23.0961 18.842 22.9533 18.5352C22.8127 18.2284 22.6028 18.0025 22.3237 17.8576C22.0446 17.7127 21.7005 17.6403 21.2914 17.6403H20.4093V21.8143Z" fill="white"/>
</g>
<defs>
<clipPath id="clip0_21305_128">
<rect width="32" height="32" fill="white"/>
</clipPath>
</defs>
</svg>
