<svg width="32" height="32" viewBox="0 0 32 32" fill="none" xmlns="http://www.w3.org/2000/svg">
<g clip-path="url(#clip0_21305_124)">
<path d="M18.6668 1.33334V6.66668C18.6668 7.37392 18.9478 8.0522 19.4479 8.5523C19.948 9.05239 20.6263 9.33334 21.3335 9.33334H26.6668M20.0002 1.33334H8.00016C7.29292 1.33334 6.61464 1.61429 6.11454 2.11439C5.61445 2.61449 5.3335 3.29277 5.3335 4.00001V28C5.3335 28.7073 5.61445 29.3855 6.11454 29.8856C6.61464 30.3857 7.29292 30.6667 8.00016 30.6667H24.0002C24.7074 30.6667 25.3857 30.3857 25.8858 29.8856C26.3859 29.3855 26.6668 28.7073 26.6668 28V8.00001L20.0002 1.33334Z" stroke="#C026D3" stroke-width="2" stroke-linecap="round" stroke-linejoin="round"/>
<rect y="13.0001" width="32" height="13.3333" rx="2" fill="#C026D3"/>
<path d="M8.52308 18.7461H7.12322C7.09766 18.565 7.04545 18.4041 6.96662 18.2635C6.88778 18.1207 6.78658 17.9993 6.663 17.8991C6.53942 17.799 6.39666 17.7223 6.23473 17.669C6.07493 17.6158 5.90128 17.5891 5.71378 17.5891C5.375 17.5891 5.0799 17.6733 4.82848 17.8416C4.57706 18.0078 4.3821 18.2507 4.24361 18.5703C4.10511 18.8878 4.03587 19.2734 4.03587 19.7273C4.03587 20.1939 4.10511 20.5859 4.24361 20.9034C4.38423 21.2209 4.58026 21.4606 4.83168 21.6225C5.0831 21.7844 5.37393 21.8654 5.70419 21.8654C5.88956 21.8654 6.06108 21.8409 6.21875 21.7919C6.37855 21.7429 6.52024 21.6715 6.64382 21.5778C6.7674 21.4819 6.86967 21.3658 6.95064 21.2294C7.03374 21.093 7.09126 20.9375 7.12322 20.7628L8.52308 20.7692C8.48686 21.0696 8.39631 21.3594 8.25142 21.6385C8.10866 21.9155 7.91584 22.1637 7.67294 22.3832C7.43217 22.6005 7.14453 22.7731 6.81001 22.9009C6.47763 23.0266 6.10156 23.0895 5.68182 23.0895C5.09801 23.0895 4.57599 22.9574 4.11577 22.6932C3.65767 22.429 3.29545 22.0465 3.02912 21.5458C2.76491 21.0451 2.63281 20.4389 2.63281 19.7273C2.63281 19.0135 2.76705 18.4062 3.03551 17.9055C3.30398 17.4048 3.66832 17.0234 4.12855 16.7614C4.58878 16.4972 5.10653 16.3651 5.68182 16.3651C6.06108 16.3651 6.41264 16.4183 6.73651 16.5249C7.0625 16.6314 7.35121 16.7869 7.60263 16.9915C7.85405 17.1939 8.05859 17.4421 8.21626 17.7361C8.37607 18.0302 8.47834 18.3668 8.52308 18.7461Z" fill="white"/>
<path d="M9.51545 23V16.4545H12.0978C12.5922 16.4545 13.014 16.543 13.3635 16.7198C13.715 16.8945 13.9824 17.1428 14.1657 17.4645C14.351 17.7841 14.4437 18.1602 14.4437 18.5927C14.4437 19.0273 14.35 19.4013 14.1625 19.7145C13.975 20.0256 13.7033 20.2642 13.3475 20.4304C12.9938 20.5966 12.5655 20.6797 12.0627 20.6797H10.3336V19.5675H11.839C12.1032 19.5675 12.3226 19.5312 12.4973 19.4588C12.6721 19.3864 12.802 19.2777 12.8873 19.1328C12.9746 18.9879 13.0183 18.8079 13.0183 18.5927C13.0183 18.3753 12.9746 18.1921 12.8873 18.043C12.802 17.8938 12.671 17.7809 12.4941 17.7042C12.3194 17.6253 12.0989 17.5859 11.8326 17.5859H10.8993V23H9.51545ZM13.0502 20.0213L14.677 23H13.1493L11.5577 20.0213H13.0502Z" fill="white"/>
<path d="M16.5499 23H15.0669L17.3265 16.4545H19.1099L21.3663 23H19.8833L18.2438 17.9503H18.1926L16.5499 23ZM16.4572 20.4272H19.9601V21.5075H16.4572V20.4272Z" fill="white"/>
<path d="M22.1541 16.4545H23.8608L25.6634 20.8523H25.7401L27.5426 16.4545H29.2493V23H27.907V18.7397H27.8526L26.1587 22.968H25.2447L23.5508 18.7237H23.4964V23H22.1541V16.4545Z" fill="white"/>
</g>
<defs>
<clipPath id="clip0_21305_124">
<rect width="32" height="32" fill="white"/>
</clipPath>
</defs>
</svg>
