<svg width="32" height="32" viewBox="0 0 32 32" fill="none" xmlns="http://www.w3.org/2000/svg">
<g clip-path="url(#clip0_21305_116)">
<path d="M18.6666 1.33334V6.66668C18.6666 7.37392 18.9475 8.0522 19.4476 8.5523C19.9477 9.05239 20.626 9.33334 21.3333 9.33334H26.6666M19.9999 1.33334H7.99992C7.29267 1.33334 6.6144 1.61429 6.1143 2.11439C5.6142 2.61449 5.33325 3.29277 5.33325 4.00001V28C5.33325 28.7073 5.6142 29.3855 6.1143 29.8856C6.6144 30.3857 7.29267 30.6667 7.99992 30.6667H23.9999C24.7072 30.6667 25.3854 30.3857 25.8855 29.8856C26.3856 29.3855 26.6666 28.7073 26.6666 28V8.00001L19.9999 1.33334Z" stroke="#DB2777" stroke-width="2" stroke-linecap="round" stroke-linejoin="round"/>
<rect y="13.0001" width="32" height="13.3333" rx="2" fill="#DB2777"/>
<path d="M12.6454 18.7461H11.2455C11.22 18.565 11.1678 18.4041 11.0889 18.2635C11.0101 18.1207 10.9089 17.9993 10.7853 17.8991C10.6617 17.799 10.519 17.7223 10.357 17.669C10.1972 17.6158 10.0236 17.5891 9.83609 17.5891C9.49731 17.5891 9.20222 17.6733 8.95079 17.8416C8.69937 18.0078 8.50442 18.2507 8.36592 18.5703C8.22743 18.8878 8.15818 19.2734 8.15818 19.7273C8.15818 20.1939 8.22743 20.5859 8.36592 20.9034C8.50655 21.2209 8.70257 21.4606 8.95399 21.6225C9.20541 21.7844 9.49625 21.8654 9.8265 21.8654C10.0119 21.8654 10.1834 21.8409 10.3411 21.7919C10.5009 21.7429 10.6426 21.6715 10.7661 21.5778C10.8897 21.4819 10.992 21.3658 11.073 21.2294C11.1561 21.093 11.2136 20.9375 11.2455 20.7628L12.6454 20.7692C12.6092 21.0696 12.5186 21.3594 12.3737 21.6385C12.231 21.9155 12.0382 22.1637 11.7953 22.3832C11.5545 22.6005 11.2668 22.7731 10.9323 22.9009C10.5999 23.0266 10.2239 23.0895 9.80413 23.0895C9.22033 23.0895 8.69831 22.9574 8.23808 22.6932C7.77998 22.429 7.41777 22.0465 7.15143 21.5458C6.88723 21.0451 6.75513 20.4389 6.75513 19.7273C6.75513 19.0135 6.88936 18.4062 7.15783 17.9055C7.42629 17.4048 7.79064 17.0234 8.25087 16.7614C8.71109 16.4972 9.22885 16.3651 9.80413 16.3651C10.1834 16.3651 10.535 16.4183 10.8588 16.5249C11.1848 16.6314 11.4735 16.7869 11.7249 16.9915C11.9764 17.1939 12.1809 17.4421 12.3386 17.7361C12.4984 18.0302 12.6007 18.3668 12.6454 18.7461Z" fill="white"/>
<path d="M17.1885 18.337C17.163 18.0792 17.0532 17.8789 16.8594 17.7361C16.6655 17.5934 16.4023 17.522 16.0699 17.522C15.8441 17.522 15.6534 17.554 15.4978 17.6179C15.3423 17.6797 15.223 17.766 15.1399 17.8768C15.0589 17.9876 15.0184 18.1133 15.0184 18.2539C15.0142 18.3711 15.0387 18.4734 15.092 18.5607C15.1474 18.6481 15.223 18.7237 15.3189 18.7876C15.4148 18.8494 15.5255 18.9038 15.6513 18.9506C15.777 18.9954 15.9112 19.0337 16.054 19.0657L16.642 19.2063C16.9275 19.2702 17.1896 19.3555 17.4282 19.462C17.6669 19.5685 17.8736 19.6996 18.0483 19.8551C18.223 20.0106 18.3583 20.1939 18.4542 20.4048C18.5522 20.6158 18.6023 20.8576 18.6044 21.1303C18.6023 21.5309 18.5 21.8782 18.2976 22.1722C18.0973 22.4641 17.8075 22.691 17.4282 22.853C17.0511 23.0128 16.5962 23.0927 16.0635 23.0927C15.5351 23.0927 15.0749 23.0117 14.6829 22.8498C14.2929 22.6878 13.9883 22.4481 13.7688 22.1307C13.5515 21.8111 13.4375 21.4158 13.4268 20.945H14.766C14.7809 21.1644 14.8437 21.3477 14.9545 21.4947C15.0674 21.6396 15.2177 21.7493 15.4052 21.8239C15.5948 21.8963 15.8089 21.9325 16.0476 21.9325C16.2819 21.9325 16.4854 21.8984 16.658 21.8303C16.8327 21.7621 16.968 21.6673 17.0639 21.5458C17.1598 21.4244 17.2077 21.2848 17.2077 21.1271C17.2077 20.9801 17.164 20.8565 17.0767 20.7564C16.9915 20.6562 16.8657 20.571 16.6996 20.5007C16.5355 20.4304 16.3341 20.3665 16.0955 20.3089L15.3828 20.13C14.8309 19.9957 14.3952 19.7859 14.0756 19.5003C13.756 19.2148 13.5973 18.8303 13.5994 18.3466C13.5973 17.9503 13.7027 17.604 13.9158 17.3079C14.131 17.0117 14.4261 16.7805 14.8011 16.6143C15.1761 16.4481 15.6023 16.3651 16.0795 16.3651C16.5653 16.3651 16.9893 16.4481 17.3515 16.6143C17.7159 16.7805 17.9993 17.0117 18.2017 17.3079C18.4041 17.604 18.5085 17.9471 18.5149 18.337H17.1885Z" fill="white"/>
<path d="M20.7178 16.4545L22.2998 21.4276H22.3605L23.9457 16.4545H25.4798L23.2234 23H21.4401L19.1805 16.4545H20.7178Z" fill="white"/>
</g>
<defs>
<clipPath id="clip0_21305_116">
<rect width="32" height="32" fill="white"/>
</clipPath>
</defs>
</svg>
