<svg width="32" height="32" viewBox="0 0 32 32" fill="none" xmlns="http://www.w3.org/2000/svg">
<g clip-path="url(#clip0_21305_108)">
<path d="M18.6666 1.33334V6.66668C18.6666 7.37392 18.9475 8.0522 19.4476 8.5523C19.9477 9.05239 20.626 9.33334 21.3333 9.33334H26.6666M19.9999 1.33334H7.99992C7.29267 1.33334 6.6144 1.61429 6.1143 2.11439C5.6142 2.61449 5.33325 3.29277 5.33325 4.00001V28C5.33325 28.7073 5.6142 29.3855 6.1143 29.8856C6.6144 30.3857 7.29267 30.6667 7.99992 30.6667H23.9999C24.7072 30.6667 25.3854 30.3857 25.8855 29.8856C26.3856 29.3855 26.6666 28.7073 26.6666 28V8.00001L19.9999 1.33334Z" stroke="#0891B2" stroke-width="2" stroke-linecap="round" stroke-linejoin="round"/>
<rect y="13.0001" width="32" height="13.3333" rx="2" fill="#0891B2"/>
<path d="M8.38909 18.5703C8.34435 18.4148 8.28149 18.2773 8.20053 18.158C8.11956 18.0366 8.02049 17.9343 7.9033 17.8512C7.78824 17.766 7.65614 17.701 7.50699 17.6562C7.35997 17.6115 7.19698 17.5891 7.018 17.5891C6.68348 17.5891 6.38945 17.6722 6.1359 17.8384C5.88448 18.0046 5.68845 18.2464 5.54783 18.5639C5.4072 18.8793 5.33689 19.2649 5.33689 19.7209C5.33689 20.1768 5.40614 20.5646 5.54463 20.8842C5.68313 21.2038 5.87915 21.4478 6.1327 21.6161C6.38625 21.7823 6.68561 21.8654 7.03078 21.8654C7.34399 21.8654 7.61139 21.81 7.83299 21.6992C8.05671 21.5863 8.22716 21.4276 8.34435 21.223C8.46367 21.0185 8.52333 20.7766 8.52333 20.4975L8.80458 20.5391H7.11708V19.4972H9.85607V20.3217C9.85607 20.897 9.73462 21.3913 9.49172 21.8047C9.24882 22.2159 8.91431 22.5334 8.48817 22.7571C8.06203 22.9787 7.57411 23.0895 7.02439 23.0895C6.41076 23.0895 5.87169 22.9542 5.4072 22.6836C4.94272 22.4109 4.5805 22.0241 4.32056 21.5234C4.06274 21.0206 3.93384 20.424 3.93384 19.7337C3.93384 19.2031 4.01054 18.7301 4.16395 18.3146C4.31949 17.897 4.53682 17.5433 4.81594 17.2535C5.09506 16.9638 5.41999 16.7432 5.79073 16.592C6.16147 16.4407 6.5631 16.3651 6.99563 16.3651C7.36637 16.3651 7.71154 16.4194 8.03114 16.528C8.35074 16.6346 8.63412 16.7859 8.88128 16.9819C9.13057 17.1779 9.33405 17.4112 9.49172 17.6818C9.64939 17.9503 9.7506 18.2464 9.79534 18.5703H8.38909Z" fill="white"/>
<path d="M11.876 16.4545L13.458 21.4276H13.5187L15.1039 16.4545H16.638L14.3816 23H12.5983L10.3387 16.4545H11.876Z" fill="white"/>
<path d="M22.8319 18.7461H21.4321C21.4065 18.565 21.3543 18.4041 21.2755 18.2635C21.1966 18.1207 21.0954 17.9993 20.9718 17.8991C20.8483 17.799 20.7055 17.7223 20.5436 17.669C20.3838 17.6158 20.2101 17.5891 20.0226 17.5891C19.6838 17.5891 19.3887 17.6733 19.1373 17.8416C18.8859 18.0078 18.6909 18.2507 18.5524 18.5703C18.414 18.8878 18.3447 19.2734 18.3447 19.7273C18.3447 20.1939 18.414 20.5859 18.5524 20.9034C18.6931 21.2209 18.8891 21.4606 19.1405 21.6225C19.3919 21.7844 19.6828 21.8654 20.013 21.8654C20.1984 21.8654 20.3699 21.8409 20.5276 21.7919C20.6874 21.7429 20.8291 21.6715 20.9527 21.5778C21.0762 21.4819 21.1785 21.3658 21.2595 21.2294C21.3426 21.093 21.4001 20.9375 21.4321 20.7628L22.8319 20.7692C22.7957 21.0696 22.7051 21.3594 22.5603 21.6385C22.4175 21.9155 22.2247 22.1637 21.9818 22.3832C21.741 22.6005 21.4534 22.7731 21.1189 22.9009C20.7865 23.0266 20.4104 23.0895 19.9907 23.0895C19.4068 23.0895 18.8848 22.9574 18.4246 22.6932C17.9665 22.429 17.6043 22.0465 17.338 21.5458C17.0738 21.0451 16.9417 20.4389 16.9417 19.7273C16.9417 19.0135 17.0759 18.4062 17.3443 17.9055C17.6128 17.4048 17.9772 17.0234 18.4374 16.7614C18.8976 16.4972 19.4154 16.3651 19.9907 16.3651C20.3699 16.3651 20.7215 16.4183 21.0453 16.5249C21.3713 16.6314 21.66 16.7869 21.9115 16.9915C22.1629 17.1939 22.3674 17.4421 22.5251 17.7361C22.6849 18.0302 22.7872 18.3668 22.8319 18.7461Z" fill="white"/>
<path d="M23.8243 23V16.4545H28.1581V17.5955H25.2082V19.1552H27.8705V20.2962H25.2082V23H23.8243Z" fill="white"/>
</g>
<defs>
<clipPath id="clip0_21305_108">
<rect width="32" height="32" fill="white"/>
</clipPath>
</defs>
</svg>
