<svg width="32" height="32" viewBox="0 0 32 32" fill="none" xmlns="http://www.w3.org/2000/svg">
<g clip-path="url(#clip0_21305_120)">
<path d="M18.6666 1.33334V6.66668C18.6666 7.37392 18.9475 8.0522 19.4476 8.5523C19.9477 9.05239 20.626 9.33334 21.3333 9.33334H26.6666M19.9999 1.33334H7.99992C7.29267 1.33334 6.6144 1.61429 6.1143 2.11439C5.6142 2.61449 5.33325 3.29277 5.33325 4.00001V28C5.33325 28.7073 5.6142 29.3855 6.1143 29.8856C6.6144 30.3857 7.29267 30.6667 7.99992 30.6667H23.9999C24.7072 30.6667 25.3854 30.3857 25.8855 29.8856C26.3856 29.3855 26.6666 28.7073 26.6666 28V8.00001L19.9999 1.33334Z" stroke="#7C3AED" stroke-width="2" stroke-linecap="round" stroke-linejoin="round"/>
<rect y="13.0001" width="32" height="13.3333" rx="2" fill="#7C3AED"/>
<path d="M6.84543 16.4545H8.21333V21.0185C8.21333 21.4403 8.11851 21.8068 7.92888 22.1179C7.74138 22.429 7.48037 22.6687 7.14585 22.837C6.81134 23.0053 6.42249 23.0895 5.97931 23.0895C5.58513 23.0895 5.22718 23.0202 4.90544 22.8817C4.58584 22.7411 4.33229 22.528 4.14479 22.2425C3.95729 21.9549 3.8646 21.5937 3.86674 21.1591H5.24422C5.24848 21.3317 5.28364 21.4798 5.34969 21.6033C5.41787 21.7248 5.51056 21.8185 5.62774 21.8846C5.74706 21.9485 5.88769 21.9805 6.04962 21.9805C6.22007 21.9805 6.36389 21.9442 6.48108 21.8718C6.6004 21.7972 6.69095 21.6886 6.75274 21.5458C6.81453 21.403 6.84543 21.2273 6.84543 21.0185V16.4545Z" fill="white"/>
<path d="M12.9083 18.337C12.8827 18.0792 12.773 17.8789 12.5791 17.7361C12.3852 17.5934 12.1221 17.522 11.7897 17.522C11.5638 17.522 11.3731 17.554 11.2176 17.6179C11.062 17.6797 10.9427 17.766 10.8596 17.8768C10.7787 17.9876 10.7382 18.1133 10.7382 18.2539C10.7339 18.3711 10.7584 18.4734 10.8117 18.5607C10.8671 18.6481 10.9427 18.7237 11.0386 18.7876C11.1345 18.8494 11.2453 18.9038 11.371 18.9506C11.4967 18.9954 11.6309 19.0337 11.7737 19.0657L12.3618 19.2063C12.6473 19.2702 12.9093 19.3555 13.148 19.462C13.3866 19.5685 13.5933 19.6996 13.768 19.8551C13.9427 20.0106 14.078 20.1939 14.1739 20.4048C14.2719 20.6158 14.322 20.8576 14.3241 21.1303C14.322 21.5309 14.2197 21.8782 14.0173 22.1722C13.817 22.4641 13.5272 22.691 13.148 22.853C12.7709 23.0128 12.316 23.0927 11.7833 23.0927C11.2549 23.0927 10.7946 23.0117 10.4026 22.8498C10.0127 22.6878 9.708 22.4481 9.48854 22.1307C9.27121 21.8111 9.15722 21.4158 9.14656 20.945H10.4857C10.5006 21.1644 10.5635 21.3477 10.6743 21.4947C10.7872 21.6396 10.9374 21.7493 11.1249 21.8239C11.3145 21.8963 11.5287 21.9325 11.7673 21.9325C12.0017 21.9325 12.2052 21.8984 12.3777 21.8303C12.5525 21.7621 12.6878 21.6673 12.7836 21.5458C12.8795 21.4244 12.9275 21.2848 12.9275 21.1271C12.9275 20.9801 12.8838 20.8565 12.7964 20.7564C12.7112 20.6562 12.5855 20.571 12.4193 20.5007C12.2552 20.4304 12.0539 20.3665 11.8152 20.3089L11.1025 20.13C10.5507 19.9957 10.115 19.7859 9.79536 19.5003C9.47575 19.2148 9.31702 18.8303 9.31915 18.3466C9.31702 17.9503 9.42249 17.604 9.63556 17.3079C9.85076 17.0117 10.1459 16.7805 10.5209 16.6143C10.8959 16.4481 11.322 16.3651 11.7993 16.3651C12.2851 16.3651 12.7091 16.4481 13.0713 16.6143C13.4356 16.7805 13.719 17.0117 13.9214 17.3079C14.1238 17.604 14.2282 17.9471 14.2346 18.337H12.9083Z" fill="white"/>
<path d="M21.2699 19.7273C21.2699 20.441 21.1346 21.0483 20.864 21.549C20.5955 22.0497 20.229 22.4322 19.7646 22.6964C19.3022 22.9584 18.7823 23.0895 18.2049 23.0895C17.6232 23.0895 17.1012 22.9574 16.6388 22.6932C16.1765 22.429 15.8111 22.0465 15.5426 21.5458C15.2741 21.0451 15.1399 20.4389 15.1399 19.7273C15.1399 19.0135 15.2741 18.4062 15.5426 17.9055C15.8111 17.4048 16.1765 17.0234 16.6388 16.7614C17.1012 16.4972 17.6232 16.3651 18.2049 16.3651C18.7823 16.3651 19.3022 16.4972 19.7646 16.7614C20.229 17.0234 20.5955 17.4048 20.864 17.9055C21.1346 18.4062 21.2699 19.0135 21.2699 19.7273ZM19.8668 19.7273C19.8668 19.2649 19.7976 18.875 19.6591 18.5575C19.5227 18.2401 19.3299 17.9993 19.0806 17.8352C18.8313 17.6712 18.5394 17.5891 18.2049 17.5891C17.8704 17.5891 17.5785 17.6712 17.3292 17.8352C17.0799 17.9993 16.886 18.2401 16.7475 18.5575C16.6111 18.875 16.543 19.2649 16.543 19.7273C16.543 20.1896 16.6111 20.5795 16.7475 20.897C16.886 21.2145 17.0799 21.4553 17.3292 21.6193C17.5785 21.7834 17.8704 21.8654 18.2049 21.8654C18.5394 21.8654 18.8313 21.7834 19.0806 21.6193C19.3299 21.4553 19.5227 21.2145 19.6591 20.897C19.7976 20.5795 19.8668 20.1896 19.8668 19.7273Z" fill="white"/>
<path d="M27.7698 16.4545V23H26.5745L23.7268 18.8803H23.6789V23H22.295V16.4545H23.5095L26.3348 20.571H26.3923V16.4545H27.7698Z" fill="white"/>
</g>
<defs>
<clipPath id="clip0_21305_120">
<rect width="32" height="32" fill="white"/>
</clipPath>
</defs>
</svg>
