<svg width="32" height="32" viewBox="0 0 32 32" fill="none" xmlns="http://www.w3.org/2000/svg">
<g clip-path="url(#clip0_21305_112)">
<path d="M18.6666 1.33334V6.66668C18.6666 7.37392 18.9475 8.0522 19.4476 8.5523C19.9477 9.05239 20.626 9.33334 21.3333 9.33334H26.6666M19.9999 1.33334H7.99992C7.29267 1.33334 6.6144 1.61429 6.1143 2.11439C5.6142 2.61449 5.33325 3.29277 5.33325 4.00001V28C5.33325 28.7073 5.6142 29.3855 6.1143 29.8856C6.6144 30.3857 7.29267 30.6667 7.99992 30.6667H23.9999C24.7072 30.6667 25.3854 30.3857 25.8855 29.8856C26.3856 29.3855 26.6666 28.7073 26.6666 28V8.00001L19.9999 1.33334Z" stroke="#16A34A" stroke-width="2" stroke-linecap="round" stroke-linejoin="round"/>
<rect y="13.0001" width="32" height="13.3333" rx="2" fill="#16A34A"/>
<path d="M6.99878 17.5955V16.4545H12.3745V17.5955H10.3706V23H9.00269V17.5955H6.99878Z" fill="white"/>
<path d="M16.8106 18.337C16.785 18.0792 16.6753 17.8789 16.4814 17.7361C16.2875 17.5934 16.0243 17.522 15.692 17.522C15.4661 17.522 15.2754 17.554 15.1199 17.6179C14.9643 17.6797 14.845 17.766 14.7619 17.8768C14.681 17.9876 14.6405 18.1133 14.6405 18.2539C14.6362 18.3711 14.6607 18.4734 14.714 18.5607C14.7694 18.6481 14.845 18.7237 14.9409 18.7876C15.0368 18.8494 15.1476 18.9038 15.2733 18.9506C15.399 18.9954 15.5332 19.0337 15.676 19.0657L16.264 19.2063C16.5496 19.2702 16.8116 19.3555 17.0503 19.462C17.2889 19.5685 17.4956 19.6996 17.6703 19.8551C17.845 20.0106 17.9803 20.1939 18.0762 20.4048C18.1742 20.6158 18.2243 20.8576 18.2264 21.1303C18.2243 21.5309 18.122 21.8782 17.9196 22.1722C17.7193 22.4641 17.4295 22.691 17.0503 22.853C16.6731 23.0128 16.2182 23.0927 15.6856 23.0927C15.1572 23.0927 14.6969 23.0117 14.3049 22.8498C13.915 22.6878 13.6103 22.4481 13.3908 22.1307C13.1735 21.8111 13.0595 21.4158 13.0489 20.945H14.388C14.4029 21.1644 14.4658 21.3477 14.5765 21.4947C14.6895 21.6396 14.8397 21.7493 15.0272 21.8239C15.2168 21.8963 15.431 21.9325 15.6696 21.9325C15.904 21.9325 16.1074 21.8984 16.28 21.8303C16.4547 21.7621 16.59 21.6673 16.6859 21.5458C16.7818 21.4244 16.8297 21.2848 16.8297 21.1271C16.8297 20.9801 16.7861 20.8565 16.6987 20.7564C16.6135 20.6562 16.4878 20.571 16.3216 20.5007C16.1575 20.4304 15.9562 20.3665 15.7175 20.3089L15.0048 20.13C14.453 19.9957 14.0172 19.7859 13.6976 19.5003C13.378 19.2148 13.2193 18.8303 13.2214 18.3466C13.2193 17.9503 13.3248 17.604 13.5378 17.3079C13.753 17.0117 14.0481 16.7805 14.4231 16.6143C14.7981 16.4481 15.2243 16.3651 15.7015 16.3651C16.1873 16.3651 16.6114 16.4481 16.9736 16.6143C17.3379 16.7805 17.6213 17.0117 17.8237 17.3079C18.0261 17.604 18.1305 17.9471 18.1369 18.337H16.8106Z" fill="white"/>
<path d="M20.3398 16.4545L21.9218 21.4276H21.9825L23.5678 16.4545H25.1019L22.8455 23H21.0621L18.8025 16.4545H20.3398Z" fill="white"/>
</g>
<defs>
<clipPath id="clip0_21305_112">
<rect width="32" height="32" fill="white"/>
</clipPath>
</defs>
</svg>
