<svg width="32" height="32" viewBox="0 0 32 32" fill="none" xmlns="http://www.w3.org/2000/svg">
<g clip-path="url(#clip0_21305_104)">
<path d="M18.6666 1.33334V6.66668C18.6666 7.37392 18.9475 8.0522 19.4476 8.5523C19.9477 9.05239 20.626 9.33334 21.3333 9.33334H26.6666M19.9999 1.33334H7.99992C7.29267 1.33334 6.6144 1.61429 6.1143 2.11439C5.6142 2.61449 5.33325 3.29277 5.33325 4.00001V28C5.33325 28.7073 5.6142 29.3855 6.1143 29.8856C6.6144 30.3857 7.29267 30.6667 7.99992 30.6667H23.9999C24.7072 30.6667 25.3854 30.3857 25.8855 29.8856C26.3856 29.3855 26.6666 28.7073 26.6666 28V8.00001L19.9999 1.33334Z" stroke="#EA580C" stroke-width="2" stroke-linecap="round" stroke-linejoin="round"/>
<rect y="13.0001" width="32" height="13.3333" rx="2" fill="#EA580C"/>
<path d="M8.55364 16.4545L10.1357 21.4276H10.1964L11.7816 16.4545H13.3157L11.0593 23H9.27595L7.01636 16.4545H8.55364Z" fill="white"/>
<path d="M19.5096 18.7461H18.1098C18.0842 18.565 18.032 18.4041 17.9531 18.2635C17.8743 18.1207 17.7731 17.9993 17.6495 17.8991C17.5259 17.799 17.3832 17.7223 17.2213 17.669C17.0615 17.6158 16.8878 17.5891 16.7003 17.5891C16.3615 17.5891 16.0664 17.6733 15.815 17.8416C15.5636 18.0078 15.3686 18.2507 15.2301 18.5703C15.0916 18.8878 15.0224 19.2734 15.0224 19.7273C15.0224 20.1939 15.0916 20.5859 15.2301 20.9034C15.3708 21.2209 15.5668 21.4606 15.8182 21.6225C16.0696 21.7844 16.3605 21.8654 16.6907 21.8654C16.8761 21.8654 17.0476 21.8409 17.2053 21.7919C17.3651 21.7429 17.5068 21.6715 17.6303 21.5778C17.7539 21.4819 17.8562 21.3658 17.9372 21.2294C18.0203 21.093 18.0778 20.9375 18.1098 20.7628L19.5096 20.7692C19.4734 21.0696 19.3828 21.3594 19.2379 21.6385C19.0952 21.9155 18.9024 22.1637 18.6595 22.3832C18.4187 22.6005 18.1311 22.7731 17.7965 22.9009C17.4642 23.0266 17.0881 23.0895 16.6683 23.0895C16.0845 23.0895 15.5625 22.9574 15.1023 22.6932C14.6442 22.429 14.282 22.0465 14.0156 21.5458C13.7514 21.0451 13.6193 20.4389 13.6193 19.7273C13.6193 19.0135 13.7536 18.4062 14.022 17.9055C14.2905 17.4048 14.6549 17.0234 15.1151 16.7614C15.5753 16.4972 16.0931 16.3651 16.6683 16.3651C17.0476 16.3651 17.3992 16.4183 17.723 16.5249C18.049 16.6314 18.3377 16.7869 18.5892 16.9915C18.8406 17.1939 19.0451 17.4421 19.2028 17.7361C19.3626 18.0302 19.4649 18.3668 19.5096 18.7461Z" fill="white"/>
<path d="M20.502 23V16.4545H24.8358V17.5955H21.8859V19.1552H24.5481V20.2962H21.8859V23H20.502Z" fill="white"/>
</g>
<defs>
<clipPath id="clip0_21305_104">
<rect width="32" height="32" fill="white"/>
</clipPath>
</defs>
</svg>
